<?xml version="1.0" encoding="UTF-8" standalone="no"?><!DOCTYPE svg PUBLIC "-//W3C//DTD SVG 1.1//EN" "http://www.w3.org/Graphics/SVG/1.1/DTD/svg11.dtd"><svg width="100%" height="100%" viewBox="0 0 1024 1024" version="1.1" xmlns="http://www.w3.org/2000/svg" xmlns:xlink="http://www.w3.org/1999/xlink" xml:space="preserve" xmlns:serif="http://www.serif.com/" style="fill-rule:evenodd;clip-rule:evenodd;stroke-linejoin:round;stroke-miterlimit:2;"><path d="M349.601,66.115c245.491,-68.263 521.573,69.686 616.137,307.863c94.564,238.178 -27.969,486.969 -273.461,555.232c-245.491,68.263 -521.573,-69.686 -616.137,-307.863c-94.564,-238.178 27.969,-486.969 273.461,-555.232Z" style="fill:#dfcf60;"/><path d="M526.748,531.556l12.692,0.067l-0.053,10.044l-12.692,-0.067l0.053,-10.044Z" style="fill:#6e007f;"/><path d="M832.999,694.318l12.692,0.067l-0.053,10.044l-12.692,-0.067l0.053,-10.044Z" style="fill:#6e007f;"/><path d="M329.937,76.035c250.461,-69.645 533.143,73.642 630.866,319.777c97.724,246.135 -26.28,502.508 -276.741,572.154c-250.461,69.645 -533.143,-73.642 -630.866,-319.777c-97.724,-246.135 26.28,-502.508 276.741,-572.154Zm27.341,68.862c211.787,-58.891 450.819,62.271 533.453,270.4c82.634,208.129 -22.222,424.915 -234.009,483.806c-211.787,58.891 -450.819,-62.271 -533.453,-270.4c-82.634,-208.129 22.222,-424.915 234.009,-483.806Z" style="fill:#6e007f;"/><path d="M339.937,56.035c250.461,-69.645 533.143,73.642 630.866,319.777c97.724,246.135 -26.28,502.508 -276.741,572.154c-250.461,69.645 -533.143,-73.642 -630.866,-319.777c-97.724,-246.135 26.28,-502.508 276.741,-572.154Zm27.341,68.862c211.787,-58.891 450.819,62.271 533.453,270.4c82.634,208.129 -22.222,424.915 -234.009,483.806c-211.787,58.891 -450.819,-62.271 -533.453,-270.4c-82.634,-208.129 22.222,-424.915 234.009,-483.806Z" style="fill:#c93ae0;"/><path d="M394.343,159.683l134.456,338.654l-34.572,9.613l-134.456,-338.654l34.572,-9.613Z" style="fill:#6e007f;"/><path d="M367.771,159.361l9.9,7.943l-8,9.971l-9.9,-7.943l8,-9.971Z" style="fill:#6e007f;"/><path d="M526.9,480.447l9.9,7.943l-8,9.971l-9.9,-7.943l8,-9.971Z" style="fill:#6e007f;"/><path d="M545.52,513.172l300.171,191.14l-18.825,28.366l-300.171,-191.14l18.825,-28.366Z" style="fill:#6e007f;"/><path d="M402.343,149.683l134.456,338.654l-34.572,9.613l-134.456,-338.654l34.572,-9.613Z" style="fill:#c93ae0;"/><path d="M545.52,503.172l300.171,191.14l-18.825,28.366l-300.171,-191.14l18.825,-28.366Z" style="fill:#c93ae0;"/></svg>